<?xml version="1.0" encoding="UTF-8" standalone="no"?>
<!DOCTYPE svg PUBLIC "-//W3C//DTD SVG 1.1//EN"
 "http://www.w3.org/Graphics/SVG/1.1/DTD/svg11.dtd">
<!-- Generated by graphviz version 2.43.0 (0)
 -->
<!-- Title: G Pages: 1 -->
<svg width="1462pt" height="283pt"
 viewBox="0.00 0.00 1462.00 283.00" xmlns="http://www.w3.org/2000/svg" xmlns:xlink="http://www.w3.org/1999/xlink">
<g id="graph0" class="graph" transform="scale(1 1) rotate(0) translate(4 279)">
<title>G</title>
<polygon fill="white" stroke="transparent" points="-4,4 -4,-279 1458,-279 1458,4 -4,4"/>
<text text-anchor="middle" x="108" y="-7.8" font-family="Times,serif" font-size="14.00">autoware_reference_system</text>
<!-- Front Lidar Driver -->
<g id="node1" class="node">
<title>Front Lidar Driver</title>
<polygon fill="#fcd975" stroke="black" stroke-width="2" points="240.5,-275 91.5,-275 91.5,-239 240.5,-239 240.5,-275"/>
<text text-anchor="middle" x="166" y="-253.3" font-family="Times,serif" font-size="14.00">Front Lidar Driver</text>
</g>
<!-- Front Points Transformer -->
<g id="node6" class="node">
<title>Front Points Transformer</title>
<polygon fill="#469986" stroke="black" stroke-width="2" points="265.5,-203 66.5,-203 66.5,-167 265.5,-167 265.5,-203"/>
<text text-anchor="middle" x="166" y="-181.3" font-family="Times,serif" font-size="14.00">Front Points Transformer</text>
</g>
<!-- Front Lidar Driver&#45;&gt;Front Points Transformer -->
<g id="edge1" class="edge">
<title>Front Lidar Driver&#45;&gt;Front Points Transformer</title>
<path fill="none" stroke="black" d="M166,-238.7C166,-230.98 166,-221.71 166,-213.11"/>
<polygon fill="black" stroke="black" points="169.5,-213.1 166,-203.1 162.5,-213.1 169.5,-213.1"/>
</g>
<!-- Rear Lidar Driver -->
<g id="node2" class="node">
<title>Rear Lidar Driver</title>
<polygon fill="#fcd975" stroke="black" stroke-width="2" points="469.5,-275 326.5,-275 326.5,-239 469.5,-239 469.5,-275"/>
<text text-anchor="middle" x="398" y="-253.3" font-family="Times,serif" font-size="14.00">Rear Lidar Driver</text>
</g>
<!-- Rear Points Transformer -->
<g id="node7" class="node">
<title>Rear Points Transformer</title>
<polygon fill="#469986" stroke="black" stroke-width="2" points="494.5,-203 301.5,-203 301.5,-167 494.5,-167 494.5,-203"/>
<text text-anchor="middle" x="398" y="-181.3" font-family="Times,serif" font-size="14.00">Rear Points Transformer</text>
</g>
<!-- Rear Lidar Driver&#45;&gt;Rear Points Transformer -->
<g id="edge2" class="edge">
<title>Rear Lidar Driver&#45;&gt;Rear Points Transformer</title>
<path fill="none" stroke="black" d="M398,-238.7C398,-230.98 398,-221.71 398,-213.11"/>
<polygon fill="black" stroke="black" points="401.5,-213.1 398,-203.1 394.5,-213.1 401.5,-213.1"/>
</g>
<!-- Point Cloud Map -->
<g id="node3" class="node">
<title>Point Cloud Map</title>
<path fill="#fcd975" stroke="black" stroke-width="2" d="M692.5,-271.73C692.5,-273.53 662.25,-275 625,-275 587.75,-275 557.5,-273.53 557.5,-271.73 557.5,-271.73 557.5,-242.27 557.5,-242.27 557.5,-240.47 587.75,-239 625,-239 662.25,-239 692.5,-240.47 692.5,-242.27 692.5,-242.27 692.5,-271.73 692.5,-271.73"/>
<path fill="none" stroke="black" stroke-width="2" d="M692.5,-271.73C692.5,-269.92 662.25,-268.45 625,-268.45 587.75,-268.45 557.5,-269.92 557.5,-271.73"/>
<text text-anchor="middle" x="625" y="-253.3" font-family="Times,serif" font-size="14.00">Point Cloud Map</text>
</g>
<!-- Point Cloud Map Loader -->
<g id="node8" class="node">
<title>Point Cloud Map Loader</title>
<polygon fill="#469986" stroke="black" stroke-width="2" points="719.5,-203 530.5,-203 530.5,-167 719.5,-167 719.5,-203"/>
<text text-anchor="middle" x="625" y="-181.3" font-family="Times,serif" font-size="14.00">Point Cloud Map Loader</text>
</g>
<!-- Point Cloud Map&#45;&gt;Point Cloud Map Loader -->
<g id="edge3" class="edge">
<title>Point Cloud Map&#45;&gt;Point Cloud Map Loader</title>
<path fill="none" stroke="black" d="M625,-238.7C625,-230.98 625,-221.71 625,-213.11"/>
<polygon fill="black" stroke="black" points="628.5,-213.1 625,-203.1 621.5,-213.1 628.5,-213.1"/>
</g>
<!-- Visualizer -->
<g id="node4" class="node">
<title>Visualizer</title>
<polygon fill="#fcd975" stroke="black" stroke-width="2" points="893.5,-275 810.5,-275 806.5,-271 806.5,-239 889.5,-239 893.5,-243 893.5,-275"/>
<polyline fill="none" stroke="black" stroke-width="2" points="889.5,-271 806.5,-271 "/>
<polyline fill="none" stroke="black" stroke-width="2" points="889.5,-271 889.5,-239 "/>
<polyline fill="none" stroke="black" stroke-width="2" points="889.5,-271 893.5,-275 "/>
<text text-anchor="middle" x="850" y="-253.3" font-family="Times,serif" font-size="14.00">Visualizer</text>
</g>
<!-- Lanelet2 Global Planner -->
<g id="node22" class="node">
<title>Lanelet2 Global Planner</title>
<polygon fill="#9d813b" stroke="black" stroke-width="2" points="944.5,-203 755.5,-203 755.5,-167 944.5,-167 944.5,-203"/>
<text text-anchor="middle" x="850" y="-181.3" font-family="Times,serif" font-size="14.00">Lanelet2 Global Planner</text>
</g>
<!-- Visualizer&#45;&gt;Lanelet2 Global Planner -->
<g id="edge4" class="edge">
<title>Visualizer&#45;&gt;Lanelet2 Global Planner</title>
<path fill="none" stroke="black" d="M850,-238.7C850,-230.98 850,-221.71 850,-213.11"/>
<polygon fill="black" stroke="black" points="853.5,-213.1 850,-203.1 846.5,-213.1 853.5,-213.1"/>
</g>
<!-- Lanelet2 Map -->
<g id="node5" class="node">
<title>Lanelet2 Map</title>
<path fill="#fcd975" stroke="black" stroke-width="2" d="M1122.5,-271.73C1122.5,-273.53 1096.73,-275 1065,-275 1033.27,-275 1007.5,-273.53 1007.5,-271.73 1007.5,-271.73 1007.5,-242.27 1007.5,-242.27 1007.5,-240.47 1033.27,-239 1065,-239 1096.73,-239 1122.5,-240.47 1122.5,-242.27 1122.5,-242.27 1122.5,-271.73 1122.5,-271.73"/>
<path fill="none" stroke="black" stroke-width="2" d="M1122.5,-271.73C1122.5,-269.92 1096.73,-268.45 1065,-268.45 1033.27,-268.45 1007.5,-269.92 1007.5,-271.73"/>
<text text-anchor="middle" x="1065" y="-253.3" font-family="Times,serif" font-size="14.00">Lanelet2 Map</text>
</g>
<!-- Lanelet2 Map Loader -->
<g id="node21" class="node">
<title>Lanelet2 Map Loader</title>
<polygon fill="#9d813b" stroke="black" stroke-width="2" points="1149.5,-203 980.5,-203 980.5,-167 1149.5,-167 1149.5,-203"/>
<text text-anchor="middle" x="1065" y="-181.3" font-family="Times,serif" font-size="14.00">Lanelet2 Map Loader</text>
</g>
<!-- Lanelet2 Map&#45;&gt;Lanelet2 Map Loader -->
<g id="edge5" class="edge">
<title>Lanelet2 Map&#45;&gt;Lanelet2 Map Loader</title>
<path fill="none" stroke="black" d="M1065,-238.7C1065,-230.98 1065,-221.71 1065,-213.11"/>
<polygon fill="black" stroke="black" points="1068.5,-213.1 1065,-203.1 1061.5,-213.1 1068.5,-213.1"/>
</g>
<!-- Point Cloud Fusion -->
<g id="node18" class="node">
<title>Point Cloud Fusion</title>
<polygon fill="#9d813b" stroke="black" stroke-width="2" points="474,-131 322,-131 322,-95 474,-95 474,-131"/>
<text text-anchor="middle" x="398" y="-109.3" font-family="Times,serif" font-size="14.00">Point Cloud Fusion</text>
</g>
<!-- Front Points Transformer&#45;&gt;Point Cloud Fusion -->
<g id="edge6" class="edge">
<title>Front Points Transformer&#45;&gt;Point Cloud Fusion</title>
<path fill="none" stroke="black" d="M222.46,-166.97C255.3,-157.06 296.87,-144.51 331.31,-134.12"/>
<polygon fill="black" stroke="black" points="332.73,-137.35 341.29,-131.11 330.71,-130.65 332.73,-137.35"/>
</g>
<!-- Rear Points Transformer&#45;&gt;Point Cloud Fusion -->
<g id="edge7" class="edge">
<title>Rear Points Transformer&#45;&gt;Point Cloud Fusion</title>
<path fill="none" stroke="black" d="M398,-166.7C398,-158.98 398,-149.71 398,-141.11"/>
<polygon fill="black" stroke="black" points="401.5,-141.1 398,-131.1 394.5,-141.1 401.5,-141.1"/>
</g>
<!-- NDT Localizer -->
<g id="node19" class="node">
<title>NDT Localizer</title>
<polygon fill="#9d813b" stroke="black" stroke-width="2" points="858,-131 740,-131 740,-95 858,-95 858,-131"/>
<text text-anchor="middle" x="799" y="-109.3" font-family="Times,serif" font-size="14.00">NDT Localizer</text>
</g>
<!-- Point Cloud Map Loader&#45;&gt;NDT Localizer -->
<g id="edge8" class="edge">
<title>Point Cloud Map Loader&#45;&gt;NDT Localizer</title>
<path fill="none" stroke="black" d="M667.57,-166.88C691.56,-157.22 721.73,-145.09 747.1,-134.88"/>
<polygon fill="black" stroke="black" points="748.6,-138.05 756.57,-131.07 745.99,-131.55 748.6,-138.05"/>
</g>
<!-- Voxel Grid Downsampler -->
<g id="node9" class="node">
<title>Voxel Grid Downsampler</title>
<polygon fill="#469986" stroke="black" stroke-width="2" points="704,-131 510,-131 510,-95 704,-95 704,-131"/>
<text text-anchor="middle" x="607" y="-109.3" font-family="Times,serif" font-size="14.00">Voxel Grid Downsampler</text>
</g>
<!-- Voxel Grid Downsampler&#45;&gt;NDT Localizer -->
<g id="edge18" class="edge">
<title>Voxel Grid Downsampler&#45;&gt;NDT Localizer</title>
<path fill="none" stroke="black" d="M704.12,-99.5C712.65,-99.53 721.17,-99.88 729.7,-100.54"/>
<polygon fill="black" stroke="black" points="729.42,-104.03 739.7,-101.47 730.07,-97.06 729.42,-104.03"/>
</g>
<!-- Voxel Grid Downsampler&#45;&gt;NDT Localizer -->
<!-- Ray Ground Filter -->
<g id="node10" class="node">
<title>Ray Ground Filter</title>
<polygon fill="#469986" stroke="black" stroke-width="2" points="340,-59 194,-59 194,-23 340,-23 340,-59"/>
<text text-anchor="middle" x="267" y="-37.3" font-family="Times,serif" font-size="14.00">Ray Ground Filter</text>
</g>
<!-- Euclidean Cluster Detector -->
<g id="node17" class="node">
<title>Euclidean Cluster Detector</title>
<polygon fill="#ff6961" stroke="black" stroke-width="2" points="672.37,-33.54 672.37,-48.46 585.46,-59 462.54,-59 375.63,-48.46 375.63,-33.54 462.54,-23 585.46,-23 672.37,-33.54"/>
<text text-anchor="middle" x="524" y="-37.3" font-family="Times,serif" font-size="14.00">Euclidean Cluster Detector</text>
</g>
<!-- Ray Ground Filter&#45;&gt;Euclidean Cluster Detector -->
<!-- Ray Ground Filter&#45;&gt;Euclidean Cluster Detector -->
<g id="edge33" class="edge">
<title>Ray Ground Filter&#45;&gt;Euclidean Cluster Detector</title>
<path fill="none" stroke="black" d="M340.03,-41C348.56,-41 357.08,-41 365.6,-41"/>
<polygon fill="black" stroke="black" points="365.61,-44.5 375.61,-41 365.61,-37.5 365.61,-44.5"/>
</g>
<!-- Ray Ground Filter&#45;&gt;Euclidean Cluster Detector -->
<!-- Object Collision Estimator -->
<g id="node11" class="node">
<title>Object Collision Estimator</title>
<polygon fill="#469986" stroke="black" stroke-width="2" points="913.5,-59 708.5,-59 708.5,-23 913.5,-23 913.5,-59"/>
<text text-anchor="middle" x="811" y="-37.3" font-family="Times,serif" font-size="14.00">Object Collision Estimator</text>
</g>
<!-- MPC Controller -->
<g id="node12" class="node">
<title>MPC Controller</title>
<polygon fill="#469986" stroke="black" stroke-width="2" points="1078,-59 950,-59 950,-23 1078,-23 1078,-59"/>
<text text-anchor="middle" x="1014" y="-37.3" font-family="Times,serif" font-size="14.00">MPC Controller</text>
</g>
<!-- Object Collision Estimator&#45;&gt;MPC Controller -->
<!-- Object Collision Estimator&#45;&gt;MPC Controller -->
<!-- Behavior Planner -->
<g id="node23" class="node">
<title>Behavior Planner</title>
<polygon fill="#2576e8" stroke="black" stroke-width="2" points="1084,-131 944,-131 944,-95 1084,-95 1084,-131"/>
<text text-anchor="middle" x="1014" y="-109.3" font-family="Times,serif" font-size="14.00">Behavior Planner</text>
</g>
<!-- Object Collision Estimator&#45;&gt;Behavior Planner -->
<g id="edge35" class="edge">
<title>Object Collision Estimator&#45;&gt;Behavior Planner</title>
<path fill="none" stroke="black" d="M860.62,-59.11C889.15,-68.95 925.15,-81.36 955.1,-91.69"/>
<polygon fill="black" stroke="black" points="954.01,-95.01 964.6,-94.97 956.29,-88.4 954.01,-95.01"/>
</g>
<!-- Vehicle Interface -->
<g id="node20" class="node">
<title>Vehicle Interface</title>
<polygon fill="#9d813b" stroke="black" stroke-width="2" points="1251.5,-59 1114.5,-59 1114.5,-23 1251.5,-23 1251.5,-59"/>
<text text-anchor="middle" x="1183" y="-37.3" font-family="Times,serif" font-size="14.00">Vehicle Interface</text>
</g>
<!-- MPC Controller&#45;&gt;Vehicle Interface -->
<!-- MPC Controller&#45;&gt;Vehicle Interface -->
<g id="edge36" class="edge">
<title>MPC Controller&#45;&gt;Vehicle Interface</title>
<path fill="none" stroke="black" d="M1078.04,-41C1086.68,-41 1095.32,-41 1103.97,-41"/>
<polygon fill="black" stroke="black" points="1104.12,-44.5 1114.12,-41 1104.12,-37.5 1104.12,-44.5"/>
</g>
<!-- MPC Controller&#45;&gt;Vehicle Interface -->
<!-- Lane Planner -->
<g id="node13" class="node">
<title>Lane Planner</title>
<polygon fill="#469986" stroke="black" stroke-width="2" points="1231.5,-131 1120.5,-131 1120.5,-95 1231.5,-95 1231.5,-131"/>
<text text-anchor="middle" x="1176" y="-109.3" font-family="Times,serif" font-size="14.00">Lane Planner</text>
</g>
<!-- Lane Planner&#45;&gt;Behavior Planner -->
<g id="edge23" class="edge">
<title>Lane Planner&#45;&gt;Behavior Planner</title>
<path fill="none" stroke="black" d="M1120.44,-113C1111.77,-113 1103.1,-113 1094.42,-113"/>
<polygon fill="black" stroke="black" points="1094.24,-109.5 1084.24,-113 1094.24,-116.5 1094.24,-109.5"/>
</g>
<!-- Parking Planner -->
<g id="node14" class="node">
<title>Parking Planner</title>
<polygon fill="#469986" stroke="black" stroke-width="2" points="1316.5,-203 1185.5,-203 1185.5,-167 1316.5,-167 1316.5,-203"/>
<text text-anchor="middle" x="1251" y="-181.3" font-family="Times,serif" font-size="14.00">Parking Planner</text>
</g>
<!-- Parking Planner&#45;&gt;Behavior Planner -->
<g id="edge13" class="edge">
<title>Parking Planner&#45;&gt;Behavior Planner</title>
<path fill="none" stroke="black" d="M1193.33,-166.97C1159.64,-157.01 1116.95,-144.41 1081.67,-133.99"/>
<polygon fill="black" stroke="black" points="1082.51,-130.59 1071.93,-131.11 1080.53,-137.3 1082.51,-130.59"/>
</g>
<!-- Euclidean Cluster Settings -->
<g id="node15" class="node">
<title>Euclidean Cluster Settings</title>
<polygon fill="#ff6961" stroke="black" stroke-width="2" points="285.5,-131 76.5,-131 76.5,-95 285.5,-95 285.5,-131"/>
<text text-anchor="middle" x="181" y="-109.3" font-family="Times,serif" font-size="14.00">Euclidean Cluster Settings</text>
</g>
<!-- Euclidean Cluster Settings&#45;&gt;Euclidean Cluster Detector -->
<g id="edge15" class="edge">
<title>Euclidean Cluster Settings&#45;&gt;Euclidean Cluster Detector</title>
<path fill="none" stroke="black" d="M264.47,-94.97C317.28,-84.19 385.38,-70.29 438.56,-59.44"/>
<polygon fill="black" stroke="black" points="439.56,-62.81 448.65,-57.38 438.16,-55.95 439.56,-62.81"/>
</g>
<!-- Euclidean Cluster Settings&#45;&gt;Point Cloud Fusion -->
<!-- Intersection Output -->
<g id="node16" class="node">
<title>Intersection Output</title>
<polygon fill="#ff6961" stroke="black" stroke-width="2" points="158,-59 0,-59 0,-23 158,-23 158,-59"/>
<text text-anchor="middle" x="79" y="-37.3" font-family="Times,serif" font-size="14.00">Intersection Output</text>
</g>
<!-- Intersection Output&#45;&gt;Ray Ground Filter -->
<!-- Intersection Output&#45;&gt;Ray Ground Filter -->
<!-- Euclidean Cluster Detector&#45;&gt;Object Collision Estimator -->
<!-- Euclidean Cluster Detector&#45;&gt;Object Collision Estimator -->
<g id="edge34" class="edge">
<title>Euclidean Cluster Detector&#45;&gt;Object Collision Estimator</title>
<path fill="none" stroke="black" d="M672.54,-41C681.1,-41 689.65,-41 698.2,-41"/>
<polygon fill="black" stroke="black" points="698.24,-44.5 708.24,-41 698.24,-37.5 698.24,-44.5"/>
</g>
<!-- Euclidean Cluster Detector&#45;&gt;Object Collision Estimator -->
<!-- Euclidean Cluster Detector&#45;&gt;Intersection Output -->
<g id="edge32" class="edge">
<title>Euclidean Cluster Detector&#45;&gt;Intersection Output</title>
<path fill="none" stroke="black" d="M457.41,-58.41C390.61,-73.5 284.87,-90.89 194,-77 174.45,-74.01 153.67,-68.32 135.22,-62.34"/>
<polygon fill="black" stroke="black" points="136.11,-58.94 125.52,-59.09 133.89,-65.58 136.11,-58.94"/>
</g>
<!-- Point Cloud Fusion&#45;&gt;Voxel Grid Downsampler -->
<g id="edge17" class="edge">
<title>Point Cloud Fusion&#45;&gt;Voxel Grid Downsampler</title>
<path fill="none" stroke="black" d="M474.33,-100.48C482.75,-99.89 491.16,-99.57 499.57,-99.51"/>
<polygon fill="black" stroke="black" points="499.81,-103.01 509.83,-99.57 499.85,-96.01 499.81,-103.01"/>
</g>
<!-- Point Cloud Fusion&#45;&gt;Voxel Grid Downsampler -->
<!-- Point Cloud Fusion&#45;&gt;Ray Ground Filter -->
<g id="edge16" class="edge">
<title>Point Cloud Fusion&#45;&gt;Ray Ground Filter</title>
<path fill="none" stroke="black" d="M365.95,-94.88C348.51,-85.55 326.73,-73.92 308.06,-63.94"/>
<polygon fill="black" stroke="black" points="309.64,-60.82 299.17,-59.19 306.34,-66.99 309.64,-60.82"/>
</g>
<!-- NDT Localizer&#45;&gt;Lanelet2 Global Planner -->
<g id="edge20" class="edge">
<title>NDT Localizer&#45;&gt;Lanelet2 Global Planner</title>
<path fill="none" stroke="black" d="M811.46,-131.1C817.43,-139.3 824.71,-149.28 831.32,-158.36"/>
<polygon fill="black" stroke="black" points="828.68,-160.68 837.39,-166.7 834.33,-156.55 828.68,-160.68"/>
</g>
<!-- NDT Localizer&#45;&gt;Behavior Planner -->
<g id="edge19" class="edge">
<title>NDT Localizer&#45;&gt;Behavior Planner</title>
<path fill="none" stroke="black" d="M858.21,-113C883.37,-113 908.53,-113 933.69,-113"/>
<polygon fill="black" stroke="black" points="933.71,-116.5 943.71,-113 933.71,-109.5 933.71,-116.5"/>
</g>
<!-- Vehicle DBW System -->
<g id="node24" class="node">
<title>Vehicle DBW System</title>
<polygon fill="#ffaa66" stroke="black" stroke-width="2" points="1454,-59 1288,-59 1288,-23 1454,-23 1454,-59"/>
<text text-anchor="middle" x="1371" y="-37.3" font-family="Times,serif" font-size="14.00">Vehicle DBW System</text>
</g>
<!-- Vehicle Interface&#45;&gt;Vehicle DBW System -->
<g id="edge37" class="edge">
<title>Vehicle Interface&#45;&gt;Vehicle DBW System</title>
<path fill="none" stroke="black" d="M1251.66,-41C1260.26,-41 1268.86,-41 1277.46,-41"/>
<polygon fill="black" stroke="black" points="1277.56,-44.5 1287.56,-41 1277.56,-37.5 1277.56,-44.5"/>
</g>
<!-- Lanelet2 Map Loader&#45;&gt;Lane Planner -->
<g id="edge14" class="edge">
<title>Lanelet2 Map Loader&#45;&gt;Lane Planner</title>
<path fill="none" stroke="black" d="M1092.15,-166.88C1106.53,-157.81 1124.38,-146.55 1139.91,-136.76"/>
<polygon fill="black" stroke="black" points="1142.15,-139.48 1148.74,-131.19 1138.42,-133.56 1142.15,-139.48"/>
</g>
<!-- Lanelet2 Map Loader&#45;&gt;Parking Planner -->
<g id="edge12" class="edge">
<title>Lanelet2 Map Loader&#45;&gt;Parking Planner</title>
<path fill="none" stroke="black" d="M1149.64,-185C1158.18,-185 1166.72,-185 1175.26,-185"/>
<polygon fill="black" stroke="black" points="1175.28,-188.5 1185.28,-185 1175.28,-181.5 1175.28,-188.5"/>
</g>
<!-- Lanelet2 Map Loader&#45;&gt;Behavior Planner -->
<g id="edge11" class="edge">
<title>Lanelet2 Map Loader&#45;&gt;Behavior Planner</title>
<path fill="none" stroke="black" d="M1052.39,-166.7C1046.4,-158.47 1039.12,-148.48 1032.52,-139.42"/>
<polygon fill="black" stroke="black" points="1035.18,-137.13 1026.46,-131.1 1029.52,-141.25 1035.18,-137.13"/>
</g>
<!-- Lanelet2 Global Planner&#45;&gt;Lanelet2 Map Loader -->
<g id="edge9" class="edge">
<title>Lanelet2 Global Planner&#45;&gt;Lanelet2 Map Loader</title>
<path fill="none" stroke="black" d="M944.9,-185C953.24,-185 961.58,-185 969.92,-185"/>
<polygon fill="black" stroke="black" points="970.09,-188.5 980.09,-185 970.09,-181.5 970.09,-188.5"/>
</g>
<!-- Lanelet2 Global Planner&#45;&gt;Behavior Planner -->
<g id="edge10" class="edge">
<title>Lanelet2 Global Planner&#45;&gt;Behavior Planner</title>
<path fill="none" stroke="black" d="M890.12,-166.88C912.64,-157.26 940.92,-145.19 964.77,-135.01"/>
<polygon fill="black" stroke="black" points="966.19,-138.21 974.01,-131.07 963.44,-131.77 966.19,-138.21"/>
</g>
<!-- Behavior Planner&#45;&gt;MPC Controller -->
<g id="edge21" class="edge">
<title>Behavior Planner&#45;&gt;MPC Controller</title>
<path fill="none" stroke="black" d="M1014,-94.7C1014,-86.98 1014,-77.71 1014,-69.11"/>
<polygon fill="black" stroke="black" points="1017.5,-69.1 1014,-59.1 1010.5,-69.1 1017.5,-69.1"/>
</g>
<!-- Behavior Planner&#45;&gt;Vehicle Interface -->
<g id="edge22" class="edge">
<title>Behavior Planner&#45;&gt;Vehicle Interface</title>
<path fill="none" stroke="black" d="M1055.34,-94.88C1078.55,-85.26 1107.69,-73.19 1132.27,-63.01"/>
<polygon fill="black" stroke="black" points="1133.89,-66.13 1141.79,-59.07 1131.21,-59.66 1133.89,-66.13"/>
</g>
</g>
</svg>
