<?xml version="1.0" encoding="UTF-8" standalone="no"?>
<!DOCTYPE svg PUBLIC "-//W3C//DTD SVG 1.1//EN"
 "http://www.w3.org/Graphics/SVG/1.1/DTD/svg11.dtd">
<!-- Generated by graphviz version 2.43.0 (0)
 -->
<!-- Title: G Pages: 1 -->
<svg width="1442pt" height="283pt"
 viewBox="0.00 0.00 1441.50 283.00" xmlns="http://www.w3.org/2000/svg" xmlns:xlink="http://www.w3.org/1999/xlink">
<g id="graph0" class="graph" transform="scale(1 1) rotate(0) translate(4 279)">
<title>G</title>
<polygon fill="white" stroke="transparent" points="-4,4 -4,-279 1437.5,-279 1437.5,4 -4,4"/>
<text text-anchor="middle" x="108" y="-7.8" font-family="Times,serif" font-size="14.00">autoware_reference_system</text>
<!-- Front Lidar Driver -->
<g id="node1" class="node">
<title>Front Lidar Driver</title>
<polygon fill="#fcd975" stroke="black" stroke-width="2" points="174,-275 25,-275 25,-239 174,-239 174,-275"/>
<text text-anchor="middle" x="99.5" y="-253.3" font-family="Times,serif" font-size="14.00">Front Lidar Driver</text>
</g>
<!-- Front Points Transformer -->
<g id="node6" class="node">
<title>Front Points Transformer</title>
<polygon fill="#469986" stroke="black" stroke-width="2" points="199,-203 0,-203 0,-167 199,-167 199,-203"/>
<text text-anchor="middle" x="99.5" y="-181.3" font-family="Times,serif" font-size="14.00">Front Points Transformer</text>
</g>
<!-- Front Lidar Driver&#45;&gt;Front Points Transformer -->
<g id="edge1" class="edge">
<title>Front Lidar Driver&#45;&gt;Front Points Transformer</title>
<path fill="none" stroke="black" d="M99.5,-238.7C99.5,-230.98 99.5,-221.71 99.5,-213.11"/>
<polygon fill="black" stroke="black" points="103,-213.1 99.5,-203.1 96,-213.1 103,-213.1"/>
</g>
<!-- Rear Lidar Driver -->
<g id="node2" class="node">
<title>Rear Lidar Driver</title>
<polygon fill="#fcd975" stroke="black" stroke-width="2" points="403,-275 260,-275 260,-239 403,-239 403,-275"/>
<text text-anchor="middle" x="331.5" y="-253.3" font-family="Times,serif" font-size="14.00">Rear Lidar Driver</text>
</g>
<!-- Rear Points Transformer -->
<g id="node7" class="node">
<title>Rear Points Transformer</title>
<polygon fill="#469986" stroke="black" stroke-width="2" points="428,-203 235,-203 235,-167 428,-167 428,-203"/>
<text text-anchor="middle" x="331.5" y="-181.3" font-family="Times,serif" font-size="14.00">Rear Points Transformer</text>
</g>
<!-- Rear Lidar Driver&#45;&gt;Rear Points Transformer -->
<g id="edge2" class="edge">
<title>Rear Lidar Driver&#45;&gt;Rear Points Transformer</title>
<path fill="none" stroke="black" d="M331.5,-238.7C331.5,-230.98 331.5,-221.71 331.5,-213.11"/>
<polygon fill="black" stroke="black" points="335,-213.1 331.5,-203.1 328,-213.1 335,-213.1"/>
</g>
<!-- Point Cloud Map -->
<g id="node3" class="node">
<title>Point Cloud Map</title>
<path fill="#fcd975" stroke="black" stroke-width="2" d="M626,-271.73C626,-273.53 595.75,-275 558.5,-275 521.25,-275 491,-273.53 491,-271.73 491,-271.73 491,-242.27 491,-242.27 491,-240.47 521.25,-239 558.5,-239 595.75,-239 626,-240.47 626,-242.27 626,-242.27 626,-271.73 626,-271.73"/>
<path fill="none" stroke="black" stroke-width="2" d="M626,-271.73C626,-269.92 595.75,-268.45 558.5,-268.45 521.25,-268.45 491,-269.92 491,-271.73"/>
<text text-anchor="middle" x="558.5" y="-253.3" font-family="Times,serif" font-size="14.00">Point Cloud Map</text>
</g>
<!-- Point Cloud Map Loader -->
<g id="node8" class="node">
<title>Point Cloud Map Loader</title>
<polygon fill="#469986" stroke="black" stroke-width="2" points="653,-203 464,-203 464,-167 653,-167 653,-203"/>
<text text-anchor="middle" x="558.5" y="-181.3" font-family="Times,serif" font-size="14.00">Point Cloud Map Loader</text>
</g>
<!-- Point Cloud Map&#45;&gt;Point Cloud Map Loader -->
<g id="edge3" class="edge">
<title>Point Cloud Map&#45;&gt;Point Cloud Map Loader</title>
<path fill="none" stroke="black" d="M558.5,-238.7C558.5,-230.98 558.5,-221.71 558.5,-213.11"/>
<polygon fill="black" stroke="black" points="562,-213.1 558.5,-203.1 555,-213.1 562,-213.1"/>
</g>
<!-- Visualizer -->
<g id="node4" class="node">
<title>Visualizer</title>
<polygon fill="#fcd975" stroke="black" stroke-width="2" points="827,-275 744,-275 740,-271 740,-239 823,-239 827,-243 827,-275"/>
<polyline fill="none" stroke="black" stroke-width="2" points="823,-271 740,-271 "/>
<polyline fill="none" stroke="black" stroke-width="2" points="823,-271 823,-239 "/>
<polyline fill="none" stroke="black" stroke-width="2" points="823,-271 827,-275 "/>
<text text-anchor="middle" x="783.5" y="-253.3" font-family="Times,serif" font-size="14.00">Visualizer</text>
</g>
<!-- Lanelet2 Global Planner -->
<g id="node20" class="node">
<title>Lanelet2 Global Planner</title>
<polygon fill="#9d813b" stroke="black" stroke-width="2" points="878,-203 689,-203 689,-167 878,-167 878,-203"/>
<text text-anchor="middle" x="783.5" y="-181.3" font-family="Times,serif" font-size="14.00">Lanelet2 Global Planner</text>
</g>
<!-- Visualizer&#45;&gt;Lanelet2 Global Planner -->
<g id="edge4" class="edge">
<title>Visualizer&#45;&gt;Lanelet2 Global Planner</title>
<path fill="none" stroke="black" d="M783.5,-238.7C783.5,-230.98 783.5,-221.71 783.5,-213.11"/>
<polygon fill="black" stroke="black" points="787,-213.1 783.5,-203.1 780,-213.1 787,-213.1"/>
</g>
<!-- Lanelet2 Map -->
<g id="node5" class="node">
<title>Lanelet2 Map</title>
<path fill="#fcd975" stroke="black" stroke-width="2" d="M1056,-271.73C1056,-273.53 1030.23,-275 998.5,-275 966.77,-275 941,-273.53 941,-271.73 941,-271.73 941,-242.27 941,-242.27 941,-240.47 966.77,-239 998.5,-239 1030.23,-239 1056,-240.47 1056,-242.27 1056,-242.27 1056,-271.73 1056,-271.73"/>
<path fill="none" stroke="black" stroke-width="2" d="M1056,-271.73C1056,-269.92 1030.23,-268.45 998.5,-268.45 966.77,-268.45 941,-269.92 941,-271.73"/>
<text text-anchor="middle" x="998.5" y="-253.3" font-family="Times,serif" font-size="14.00">Lanelet2 Map</text>
</g>
<!-- Lanelet2 Map Loader -->
<g id="node19" class="node">
<title>Lanelet2 Map Loader</title>
<polygon fill="#9d813b" stroke="black" stroke-width="2" points="1083,-203 914,-203 914,-167 1083,-167 1083,-203"/>
<text text-anchor="middle" x="998.5" y="-181.3" font-family="Times,serif" font-size="14.00">Lanelet2 Map Loader</text>
</g>
<!-- Lanelet2 Map&#45;&gt;Lanelet2 Map Loader -->
<g id="edge5" class="edge">
<title>Lanelet2 Map&#45;&gt;Lanelet2 Map Loader</title>
<path fill="none" stroke="black" d="M998.5,-238.7C998.5,-230.98 998.5,-221.71 998.5,-213.11"/>
<polygon fill="black" stroke="black" points="1002,-213.1 998.5,-203.1 995,-213.1 1002,-213.1"/>
</g>
<!-- Point Cloud Fusion -->
<g id="node16" class="node">
<title>Point Cloud Fusion</title>
<polygon fill="#9d813b" stroke="black" stroke-width="2" points="407.5,-131 255.5,-131 255.5,-95 407.5,-95 407.5,-131"/>
<text text-anchor="middle" x="331.5" y="-109.3" font-family="Times,serif" font-size="14.00">Point Cloud Fusion</text>
</g>
<!-- Front Points Transformer&#45;&gt;Point Cloud Fusion -->
<g id="edge6" class="edge">
<title>Front Points Transformer&#45;&gt;Point Cloud Fusion</title>
<path fill="none" stroke="black" d="M155.96,-166.97C188.8,-157.06 230.37,-144.51 264.81,-134.12"/>
<polygon fill="black" stroke="black" points="266.23,-137.35 274.79,-131.11 264.21,-130.65 266.23,-137.35"/>
</g>
<!-- Rear Points Transformer&#45;&gt;Point Cloud Fusion -->
<g id="edge7" class="edge">
<title>Rear Points Transformer&#45;&gt;Point Cloud Fusion</title>
<path fill="none" stroke="black" d="M331.5,-166.7C331.5,-158.98 331.5,-149.71 331.5,-141.11"/>
<polygon fill="black" stroke="black" points="335,-141.1 331.5,-131.1 328,-141.1 335,-141.1"/>
</g>
<!-- NDT Localizer -->
<g id="node17" class="node">
<title>NDT Localizer</title>
<polygon fill="#9d813b" stroke="black" stroke-width="2" points="829.5,-131 711.5,-131 711.5,-95 829.5,-95 829.5,-131"/>
<text text-anchor="middle" x="770.5" y="-109.3" font-family="Times,serif" font-size="14.00">NDT Localizer</text>
</g>
<!-- Point Cloud Map Loader&#45;&gt;NDT Localizer -->
<g id="edge8" class="edge">
<title>Point Cloud Map Loader&#45;&gt;NDT Localizer</title>
<path fill="none" stroke="black" d="M610.09,-166.97C639.97,-157.1 677.76,-144.62 709.16,-134.25"/>
<polygon fill="black" stroke="black" points="710.28,-137.57 718.68,-131.11 708.09,-130.92 710.28,-137.57"/>
</g>
<!-- Voxel Grid Downsampler -->
<g id="node9" class="node">
<title>Voxel Grid Downsampler</title>
<polygon fill="#469986" stroke="black" stroke-width="2" points="662.5,-131 468.5,-131 468.5,-95 662.5,-95 662.5,-131"/>
<text text-anchor="middle" x="565.5" y="-109.3" font-family="Times,serif" font-size="14.00">Voxel Grid Downsampler</text>
</g>
<!-- Voxel Grid Downsampler&#45;&gt;NDT Localizer -->
<g id="edge17" class="edge">
<title>Voxel Grid Downsampler&#45;&gt;NDT Localizer</title>
<path fill="none" stroke="black" d="M662.79,-113C675.52,-113 688.25,-113 700.97,-113"/>
<polygon fill="black" stroke="black" points="701.18,-116.5 711.18,-113 701.18,-109.5 701.18,-116.5"/>
</g>
<!-- Ray Ground Filter -->
<g id="node10" class="node">
<title>Ray Ground Filter</title>
<polygon fill="#469986" stroke="black" stroke-width="2" points="404.5,-59 258.5,-59 258.5,-23 404.5,-23 404.5,-59"/>
<text text-anchor="middle" x="331.5" y="-37.3" font-family="Times,serif" font-size="14.00">Ray Ground Filter</text>
</g>
<!-- Euclidean Cluster Detector -->
<g id="node11" class="node">
<title>Euclidean Cluster Detector</title>
<polygon fill="#469986" stroke="black" stroke-width="2" points="652,-59 441,-59 441,-23 652,-23 652,-59"/>
<text text-anchor="middle" x="546.5" y="-37.3" font-family="Times,serif" font-size="14.00">Euclidean Cluster Detector</text>
</g>
<!-- Ray Ground Filter&#45;&gt;Euclidean Cluster Detector -->
<g id="edge23" class="edge">
<title>Ray Ground Filter&#45;&gt;Euclidean Cluster Detector</title>
<path fill="none" stroke="black" d="M404.57,-41C413.27,-41 421.97,-41 430.67,-41"/>
<polygon fill="black" stroke="black" points="430.88,-44.5 440.88,-41 430.88,-37.5 430.88,-44.5"/>
</g>
<!-- Object Collision Estimator -->
<g id="node12" class="node">
<title>Object Collision Estimator</title>
<polygon fill="#469986" stroke="black" stroke-width="2" points="893,-59 688,-59 688,-23 893,-23 893,-59"/>
<text text-anchor="middle" x="790.5" y="-37.3" font-family="Times,serif" font-size="14.00">Object Collision Estimator</text>
</g>
<!-- Euclidean Cluster Detector&#45;&gt;Object Collision Estimator -->
<g id="edge24" class="edge">
<title>Euclidean Cluster Detector&#45;&gt;Object Collision Estimator</title>
<path fill="none" stroke="black" d="M652.3,-41C660.83,-41 669.37,-41 677.91,-41"/>
<polygon fill="black" stroke="black" points="677.93,-44.5 687.93,-41 677.93,-37.5 677.93,-44.5"/>
</g>
<!-- Behavior Planner -->
<g id="node21" class="node">
<title>Behavior Planner</title>
<polygon fill="#2576e8" stroke="black" stroke-width="2" points="1063.5,-131 923.5,-131 923.5,-95 1063.5,-95 1063.5,-131"/>
<text text-anchor="middle" x="993.5" y="-109.3" font-family="Times,serif" font-size="14.00">Behavior Planner</text>
</g>
<!-- Object Collision Estimator&#45;&gt;Behavior Planner -->
<g id="edge25" class="edge">
<title>Object Collision Estimator&#45;&gt;Behavior Planner</title>
<path fill="none" stroke="black" d="M840.12,-59.11C868.65,-68.95 904.65,-81.36 934.6,-91.69"/>
<polygon fill="black" stroke="black" points="933.51,-95.01 944.1,-94.97 935.79,-88.4 933.51,-95.01"/>
</g>
<!-- MPC Controller -->
<g id="node13" class="node">
<title>MPC Controller</title>
<polygon fill="#469986" stroke="black" stroke-width="2" points="1057.5,-59 929.5,-59 929.5,-23 1057.5,-23 1057.5,-59"/>
<text text-anchor="middle" x="993.5" y="-37.3" font-family="Times,serif" font-size="14.00">MPC Controller</text>
</g>
<!-- Vehicle Interface -->
<g id="node18" class="node">
<title>Vehicle Interface</title>
<polygon fill="#9d813b" stroke="black" stroke-width="2" points="1231,-59 1094,-59 1094,-23 1231,-23 1231,-59"/>
<text text-anchor="middle" x="1162.5" y="-37.3" font-family="Times,serif" font-size="14.00">Vehicle Interface</text>
</g>
<!-- MPC Controller&#45;&gt;Vehicle Interface -->
<g id="edge26" class="edge">
<title>MPC Controller&#45;&gt;Vehicle Interface</title>
<path fill="none" stroke="black" d="M1057.54,-41C1066.18,-41 1074.82,-41 1083.47,-41"/>
<polygon fill="black" stroke="black" points="1083.62,-44.5 1093.62,-41 1083.62,-37.5 1083.62,-44.5"/>
</g>
<!-- Lane Planner -->
<g id="node14" class="node">
<title>Lane Planner</title>
<polygon fill="#469986" stroke="black" stroke-width="2" points="1211,-131 1100,-131 1100,-95 1211,-95 1211,-131"/>
<text text-anchor="middle" x="1155.5" y="-109.3" font-family="Times,serif" font-size="14.00">Lane Planner</text>
</g>
<!-- Lane Planner&#45;&gt;Behavior Planner -->
<g id="edge22" class="edge">
<title>Lane Planner&#45;&gt;Behavior Planner</title>
<path fill="none" stroke="black" d="M1099.94,-113C1091.27,-113 1082.6,-113 1073.92,-113"/>
<polygon fill="black" stroke="black" points="1073.74,-109.5 1063.74,-113 1073.74,-116.5 1073.74,-109.5"/>
</g>
<!-- Parking Planner -->
<g id="node15" class="node">
<title>Parking Planner</title>
<polygon fill="#469986" stroke="black" stroke-width="2" points="1250,-203 1119,-203 1119,-167 1250,-167 1250,-203"/>
<text text-anchor="middle" x="1184.5" y="-181.3" font-family="Times,serif" font-size="14.00">Parking Planner</text>
</g>
<!-- Parking Planner&#45;&gt;Behavior Planner -->
<g id="edge13" class="edge">
<title>Parking Planner&#45;&gt;Behavior Planner</title>
<path fill="none" stroke="black" d="M1137.78,-166.88C1111.2,-157.14 1077.74,-144.87 1049.73,-134.61"/>
<polygon fill="black" stroke="black" points="1050.67,-131.22 1040.07,-131.07 1048.26,-137.8 1050.67,-131.22"/>
</g>
<!-- Point Cloud Fusion&#45;&gt;Voxel Grid Downsampler -->
<g id="edge16" class="edge">
<title>Point Cloud Fusion&#45;&gt;Voxel Grid Downsampler</title>
<path fill="none" stroke="black" d="M407.82,-113C424.57,-113 441.32,-113 458.07,-113"/>
<polygon fill="black" stroke="black" points="458.49,-116.5 468.49,-113 458.49,-109.5 458.49,-116.5"/>
</g>
<!-- Point Cloud Fusion&#45;&gt;Ray Ground Filter -->
<g id="edge15" class="edge">
<title>Point Cloud Fusion&#45;&gt;Ray Ground Filter</title>
<path fill="none" stroke="black" d="M331.5,-94.7C331.5,-86.98 331.5,-77.71 331.5,-69.11"/>
<polygon fill="black" stroke="black" points="335,-69.1 331.5,-59.1 328,-69.1 335,-69.1"/>
</g>
<!-- NDT Localizer&#45;&gt;Lanelet2 Global Planner -->
<g id="edge19" class="edge">
<title>NDT Localizer&#45;&gt;Lanelet2 Global Planner</title>
<path fill="none" stroke="black" d="M773.68,-131.1C775.1,-138.79 776.82,-148.05 778.42,-156.67"/>
<polygon fill="black" stroke="black" points="775.02,-157.5 780.29,-166.7 781.9,-156.23 775.02,-157.5"/>
</g>
<!-- NDT Localizer&#45;&gt;Behavior Planner -->
<g id="edge18" class="edge">
<title>NDT Localizer&#45;&gt;Behavior Planner</title>
<path fill="none" stroke="black" d="M829.73,-113C857.56,-113 885.38,-113 913.2,-113"/>
<polygon fill="black" stroke="black" points="913.45,-116.5 923.45,-113 913.45,-109.5 913.45,-116.5"/>
</g>
<!-- Vehicle DBW System -->
<g id="node22" class="node">
<title>Vehicle DBW System</title>
<polygon fill="#ffaa66" stroke="black" stroke-width="2" points="1433.5,-59 1267.5,-59 1267.5,-23 1433.5,-23 1433.5,-59"/>
<text text-anchor="middle" x="1350.5" y="-37.3" font-family="Times,serif" font-size="14.00">Vehicle DBW System</text>
</g>
<!-- Vehicle Interface&#45;&gt;Vehicle DBW System -->
<g id="edge27" class="edge">
<title>Vehicle Interface&#45;&gt;Vehicle DBW System</title>
<path fill="none" stroke="black" d="M1231.16,-41C1239.76,-41 1248.36,-41 1256.96,-41"/>
<polygon fill="black" stroke="black" points="1257.06,-44.5 1267.06,-41 1257.06,-37.5 1257.06,-44.5"/>
</g>
<!-- Lanelet2 Map Loader&#45;&gt;Lane Planner -->
<g id="edge14" class="edge">
<title>Lanelet2 Map Loader&#45;&gt;Lane Planner</title>
<path fill="none" stroke="black" d="M1036.91,-166.88C1058.37,-157.31 1085.3,-145.3 1108.07,-135.15"/>
<polygon fill="black" stroke="black" points="1109.51,-138.34 1117.22,-131.07 1106.66,-131.94 1109.51,-138.34"/>
</g>
<!-- Lanelet2 Map Loader&#45;&gt;Parking Planner -->
<g id="edge12" class="edge">
<title>Lanelet2 Map Loader&#45;&gt;Parking Planner</title>
<path fill="none" stroke="black" d="M1083.14,-185C1091.68,-185 1100.22,-185 1108.76,-185"/>
<polygon fill="black" stroke="black" points="1108.78,-188.5 1118.78,-185 1108.78,-181.5 1108.78,-188.5"/>
</g>
<!-- Lanelet2 Map Loader&#45;&gt;Behavior Planner -->
<g id="edge11" class="edge">
<title>Lanelet2 Map Loader&#45;&gt;Behavior Planner</title>
<path fill="none" stroke="black" d="M997.26,-166.7C996.71,-158.98 996.05,-149.71 995.44,-141.11"/>
<polygon fill="black" stroke="black" points="998.93,-140.83 994.72,-131.1 991.94,-141.33 998.93,-140.83"/>
</g>
<!-- Lanelet2 Global Planner&#45;&gt;Lanelet2 Map Loader -->
<g id="edge9" class="edge">
<title>Lanelet2 Global Planner&#45;&gt;Lanelet2 Map Loader</title>
<path fill="none" stroke="black" d="M878.4,-185C886.74,-185 895.08,-185 903.42,-185"/>
<polygon fill="black" stroke="black" points="903.59,-188.5 913.59,-185 903.59,-181.5 903.59,-188.5"/>
</g>
<!-- Lanelet2 Global Planner&#45;&gt;Behavior Planner -->
<g id="edge10" class="edge">
<title>Lanelet2 Global Planner&#45;&gt;Behavior Planner</title>
<path fill="none" stroke="black" d="M834.6,-166.97C864.07,-157.14 901.31,-144.73 932.33,-134.39"/>
<polygon fill="black" stroke="black" points="933.79,-137.59 942.17,-131.11 931.57,-130.95 933.79,-137.59"/>
</g>
<!-- Behavior Planner&#45;&gt;MPC Controller -->
<g id="edge20" class="edge">
<title>Behavior Planner&#45;&gt;MPC Controller</title>
<path fill="none" stroke="black" d="M993.5,-94.7C993.5,-86.98 993.5,-77.71 993.5,-69.11"/>
<polygon fill="black" stroke="black" points="997,-69.1 993.5,-59.1 990,-69.1 997,-69.1"/>
</g>
<!-- Behavior Planner&#45;&gt;Vehicle Interface -->
<g id="edge21" class="edge">
<title>Behavior Planner&#45;&gt;Vehicle Interface</title>
<path fill="none" stroke="black" d="M1034.84,-94.88C1058.05,-85.26 1087.19,-73.19 1111.77,-63.01"/>
<polygon fill="black" stroke="black" points="1113.39,-66.13 1121.29,-59.07 1110.71,-59.66 1113.39,-66.13"/>
</g>
</g>
</svg>
