<?xml version="1.0" encoding="UTF-8" standalone="no"?>
<!DOCTYPE svg PUBLIC "-//W3C//DTD SVG 1.1//EN"
 "http://www.w3.org/Graphics/SVG/1.1/DTD/svg11.dtd">
<!-- Generated by graphviz version 2.43.0 (0)
 -->
<!-- Title: G Pages: 1 -->
<svg width="1514pt" height="283pt"
 viewBox="0.00 0.00 1513.50 283.00" xmlns="http://www.w3.org/2000/svg" xmlns:xlink="http://www.w3.org/1999/xlink">
<g id="graph0" class="graph" transform="scale(1 1) rotate(0) translate(4 279)">
<title>G</title>
<polygon fill="white" stroke="transparent" points="-4,4 -4,-279 1509.5,-279 1509.5,4 -4,4"/>
<text text-anchor="middle" x="108" y="-7.8" font-family="Times,serif" font-size="14.00">autoware_reference_system</text>
<!-- Front Lidar Driver -->
<g id="node1" class="node">
<title>Front Lidar Driver</title>
<polygon fill="#fcd975" stroke="black" stroke-width="2" points="191,-275 42,-275 42,-239 191,-239 191,-275"/>
<text text-anchor="middle" x="116.5" y="-253.3" font-family="Times,serif" font-size="14.00">Front Lidar Driver</text>
</g>
<!-- Front Points Transformer -->
<g id="node6" class="node">
<title>Front Points Transformer</title>
<polygon fill="#469986" stroke="black" stroke-width="2" points="216,-203 17,-203 17,-167 216,-167 216,-203"/>
<text text-anchor="middle" x="116.5" y="-181.3" font-family="Times,serif" font-size="14.00">Front Points Transformer</text>
</g>
<!-- Front Lidar Driver&#45;&gt;Front Points Transformer -->
<g id="edge1" class="edge">
<title>Front Lidar Driver&#45;&gt;Front Points Transformer</title>
<path fill="none" stroke="black" d="M116.5,-238.7C116.5,-230.98 116.5,-221.71 116.5,-213.11"/>
<polygon fill="black" stroke="black" points="120,-213.1 116.5,-203.1 113,-213.1 120,-213.1"/>
</g>
<!-- Rear Lidar Driver -->
<g id="node2" class="node">
<title>Rear Lidar Driver</title>
<polygon fill="#fcd975" stroke="black" stroke-width="2" points="420,-275 277,-275 277,-239 420,-239 420,-275"/>
<text text-anchor="middle" x="348.5" y="-253.3" font-family="Times,serif" font-size="14.00">Rear Lidar Driver</text>
</g>
<!-- Rear Points Transformer -->
<g id="node7" class="node">
<title>Rear Points Transformer</title>
<polygon fill="#469986" stroke="black" stroke-width="2" points="445,-203 252,-203 252,-167 445,-167 445,-203"/>
<text text-anchor="middle" x="348.5" y="-181.3" font-family="Times,serif" font-size="14.00">Rear Points Transformer</text>
</g>
<!-- Rear Lidar Driver&#45;&gt;Rear Points Transformer -->
<g id="edge2" class="edge">
<title>Rear Lidar Driver&#45;&gt;Rear Points Transformer</title>
<path fill="none" stroke="black" d="M348.5,-238.7C348.5,-230.98 348.5,-221.71 348.5,-213.11"/>
<polygon fill="black" stroke="black" points="352,-213.1 348.5,-203.1 345,-213.1 352,-213.1"/>
</g>
<!-- Point Cloud Map -->
<g id="node3" class="node">
<title>Point Cloud Map</title>
<path fill="#fcd975" stroke="black" stroke-width="2" d="M683,-271.73C683,-273.53 652.75,-275 615.5,-275 578.25,-275 548,-273.53 548,-271.73 548,-271.73 548,-242.27 548,-242.27 548,-240.47 578.25,-239 615.5,-239 652.75,-239 683,-240.47 683,-242.27 683,-242.27 683,-271.73 683,-271.73"/>
<path fill="none" stroke="black" stroke-width="2" d="M683,-271.73C683,-269.92 652.75,-268.45 615.5,-268.45 578.25,-268.45 548,-269.92 548,-271.73"/>
<text text-anchor="middle" x="615.5" y="-253.3" font-family="Times,serif" font-size="14.00">Point Cloud Map</text>
</g>
<!-- Point Cloud Map Loader -->
<g id="node8" class="node">
<title>Point Cloud Map Loader</title>
<polygon fill="#469986" stroke="black" stroke-width="2" points="710,-203 521,-203 521,-167 710,-167 710,-203"/>
<text text-anchor="middle" x="615.5" y="-181.3" font-family="Times,serif" font-size="14.00">Point Cloud Map Loader</text>
</g>
<!-- Point Cloud Map&#45;&gt;Point Cloud Map Loader -->
<g id="edge3" class="edge">
<title>Point Cloud Map&#45;&gt;Point Cloud Map Loader</title>
<path fill="none" stroke="black" d="M615.5,-238.7C615.5,-230.98 615.5,-221.71 615.5,-213.11"/>
<polygon fill="black" stroke="black" points="619,-213.1 615.5,-203.1 612,-213.1 619,-213.1"/>
</g>
<!-- Visualizer -->
<g id="node4" class="node">
<title>Visualizer</title>
<polygon fill="#fcd975" stroke="black" stroke-width="2" points="884,-275 801,-275 797,-271 797,-239 880,-239 884,-243 884,-275"/>
<polyline fill="none" stroke="black" stroke-width="2" points="880,-271 797,-271 "/>
<polyline fill="none" stroke="black" stroke-width="2" points="880,-271 880,-239 "/>
<polyline fill="none" stroke="black" stroke-width="2" points="880,-271 884,-275 "/>
<text text-anchor="middle" x="840.5" y="-253.3" font-family="Times,serif" font-size="14.00">Visualizer</text>
</g>
<!-- Lanelet2 Global Planner -->
<g id="node21" class="node">
<title>Lanelet2 Global Planner</title>
<polygon fill="#9d813b" stroke="black" stroke-width="2" points="935,-203 746,-203 746,-167 935,-167 935,-203"/>
<text text-anchor="middle" x="840.5" y="-181.3" font-family="Times,serif" font-size="14.00">Lanelet2 Global Planner</text>
</g>
<!-- Visualizer&#45;&gt;Lanelet2 Global Planner -->
<g id="edge4" class="edge">
<title>Visualizer&#45;&gt;Lanelet2 Global Planner</title>
<path fill="none" stroke="black" d="M840.5,-238.7C840.5,-230.98 840.5,-221.71 840.5,-213.11"/>
<polygon fill="black" stroke="black" points="844,-213.1 840.5,-203.1 837,-213.1 844,-213.1"/>
</g>
<!-- Lanelet2 Map -->
<g id="node5" class="node">
<title>Lanelet2 Map</title>
<path fill="#fcd975" stroke="black" stroke-width="2" d="M1113,-271.73C1113,-273.53 1087.23,-275 1055.5,-275 1023.77,-275 998,-273.53 998,-271.73 998,-271.73 998,-242.27 998,-242.27 998,-240.47 1023.77,-239 1055.5,-239 1087.23,-239 1113,-240.47 1113,-242.27 1113,-242.27 1113,-271.73 1113,-271.73"/>
<path fill="none" stroke="black" stroke-width="2" d="M1113,-271.73C1113,-269.92 1087.23,-268.45 1055.5,-268.45 1023.77,-268.45 998,-269.92 998,-271.73"/>
<text text-anchor="middle" x="1055.5" y="-253.3" font-family="Times,serif" font-size="14.00">Lanelet2 Map</text>
</g>
<!-- Lanelet2 Map Loader -->
<g id="node20" class="node">
<title>Lanelet2 Map Loader</title>
<polygon fill="#9d813b" stroke="black" stroke-width="2" points="1140,-203 971,-203 971,-167 1140,-167 1140,-203"/>
<text text-anchor="middle" x="1055.5" y="-181.3" font-family="Times,serif" font-size="14.00">Lanelet2 Map Loader</text>
</g>
<!-- Lanelet2 Map&#45;&gt;Lanelet2 Map Loader -->
<g id="edge5" class="edge">
<title>Lanelet2 Map&#45;&gt;Lanelet2 Map Loader</title>
<path fill="none" stroke="black" d="M1055.5,-238.7C1055.5,-230.98 1055.5,-221.71 1055.5,-213.11"/>
<polygon fill="black" stroke="black" points="1059,-213.1 1055.5,-203.1 1052,-213.1 1059,-213.1"/>
</g>
<!-- Point Cloud Fusion -->
<g id="node17" class="node">
<title>Point Cloud Fusion</title>
<polygon fill="#9d813b" stroke="black" stroke-width="2" points="414.5,-131 262.5,-131 262.5,-95 414.5,-95 414.5,-131"/>
<text text-anchor="middle" x="338.5" y="-109.3" font-family="Times,serif" font-size="14.00">Point Cloud Fusion</text>
</g>
<!-- Front Points Transformer&#45;&gt;Point Cloud Fusion -->
<g id="edge6" class="edge">
<title>Front Points Transformer&#45;&gt;Point Cloud Fusion</title>
<path fill="none" stroke="black" d="M170.52,-166.97C201.95,-157.06 241.73,-144.51 274.69,-134.12"/>
<polygon fill="black" stroke="black" points="275.75,-137.46 284.23,-131.11 273.64,-130.78 275.75,-137.46"/>
</g>
<!-- Rear Points Transformer&#45;&gt;Point Cloud Fusion -->
<g id="edge7" class="edge">
<title>Rear Points Transformer&#45;&gt;Point Cloud Fusion</title>
<path fill="none" stroke="black" d="M346.03,-166.7C344.93,-158.98 343.6,-149.71 342.37,-141.11"/>
<polygon fill="black" stroke="black" points="345.82,-140.51 340.94,-131.1 338.89,-141.5 345.82,-140.51"/>
</g>
<!-- NDT Localizer -->
<g id="node18" class="node">
<title>NDT Localizer</title>
<polygon fill="#9d813b" stroke="black" stroke-width="2" points="854.5,-131 736.5,-131 736.5,-95 854.5,-95 854.5,-131"/>
<text text-anchor="middle" x="795.5" y="-109.3" font-family="Times,serif" font-size="14.00">NDT Localizer</text>
</g>
<!-- Point Cloud Map Loader&#45;&gt;NDT Localizer -->
<g id="edge8" class="edge">
<title>Point Cloud Map Loader&#45;&gt;NDT Localizer</title>
<path fill="none" stroke="black" d="M659.53,-166.88C684.47,-157.18 715.84,-144.98 742.16,-134.74"/>
<polygon fill="black" stroke="black" points="743.56,-137.95 751.61,-131.07 741.02,-131.43 743.56,-137.95"/>
</g>
<!-- Voxel Grid Downsampler -->
<g id="node9" class="node">
<title>Voxel Grid Downsampler</title>
<polygon fill="#469986" stroke="black" stroke-width="2" points="677.5,-131 483.5,-131 483.5,-95 677.5,-95 677.5,-131"/>
<text text-anchor="middle" x="580.5" y="-109.3" font-family="Times,serif" font-size="14.00">Voxel Grid Downsampler</text>
</g>
<!-- Voxel Grid Downsampler&#45;&gt;NDT Localizer -->
<g id="edge17" class="edge">
<title>Voxel Grid Downsampler&#45;&gt;NDT Localizer</title>
<path fill="none" stroke="black" d="M677.5,-113C693.66,-113 709.82,-113 725.98,-113"/>
<polygon fill="black" stroke="black" points="726.04,-116.5 736.04,-113 726.04,-109.5 726.04,-116.5"/>
</g>
<!-- Ray Ground Filter -->
<g id="node10" class="node">
<title>Ray Ground Filter</title>
<polygon fill="#469986" stroke="black" stroke-width="2" points="391.5,-59 245.5,-59 245.5,-23 391.5,-23 391.5,-59"/>
<text text-anchor="middle" x="318.5" y="-37.3" font-family="Times,serif" font-size="14.00">Ray Ground Filter</text>
</g>
<!-- Euclidean Cluster Detector -->
<g id="node16" class="node">
<title>Euclidean Cluster Detector</title>
<polygon fill="#ff6961" stroke="black" stroke-width="2" points="723.87,-33.54 723.87,-48.46 636.96,-59 514.04,-59 427.13,-48.46 427.13,-33.54 514.04,-23 636.96,-23 723.87,-33.54"/>
<text text-anchor="middle" x="575.5" y="-37.3" font-family="Times,serif" font-size="14.00">Euclidean Cluster Detector</text>
</g>
<!-- Ray Ground Filter&#45;&gt;Euclidean Cluster Detector -->
<g id="edge24" class="edge">
<title>Ray Ground Filter&#45;&gt;Euclidean Cluster Detector</title>
<path fill="none" stroke="black" d="M391.53,-30.02C415.11,-27.88 438.69,-27.1 462.27,-27.69"/>
<polygon fill="black" stroke="black" points="462.27,-31.19 472.38,-28.03 462.5,-24.2 462.27,-31.19"/>
</g>
<!-- Ray Ground Filter&#45;&gt;Euclidean Cluster Detector -->
<!-- Object Collision Estimator -->
<g id="node11" class="node">
<title>Object Collision Estimator</title>
<polygon fill="#469986" stroke="black" stroke-width="2" points="965,-59 760,-59 760,-23 965,-23 965,-59"/>
<text text-anchor="middle" x="862.5" y="-37.3" font-family="Times,serif" font-size="14.00">Object Collision Estimator</text>
</g>
<!-- MPC Controller -->
<g id="node12" class="node">
<title>MPC Controller</title>
<polygon fill="#469986" stroke="black" stroke-width="2" points="1129.5,-59 1001.5,-59 1001.5,-23 1129.5,-23 1129.5,-59"/>
<text text-anchor="middle" x="1065.5" y="-37.3" font-family="Times,serif" font-size="14.00">MPC Controller</text>
</g>
<!-- Object Collision Estimator&#45;&gt;MPC Controller -->
<!-- Behavior Planner -->
<g id="node22" class="node">
<title>Behavior Planner</title>
<polygon fill="#2576e8" stroke="black" stroke-width="2" points="1125.5,-131 985.5,-131 985.5,-95 1125.5,-95 1125.5,-131"/>
<text text-anchor="middle" x="1055.5" y="-109.3" font-family="Times,serif" font-size="14.00">Behavior Planner</text>
</g>
<!-- Object Collision Estimator&#45;&gt;Behavior Planner -->
<g id="edge26" class="edge">
<title>Object Collision Estimator&#45;&gt;Behavior Planner</title>
<path fill="none" stroke="black" d="M909.56,-59.07C936.39,-68.8 970.2,-81.06 998.52,-91.33"/>
<polygon fill="black" stroke="black" points="997.69,-94.76 1008.29,-94.88 1000.08,-88.18 997.69,-94.76"/>
</g>
<!-- Vehicle Interface -->
<g id="node19" class="node">
<title>Vehicle Interface</title>
<polygon fill="#9d813b" stroke="black" stroke-width="2" points="1303,-59 1166,-59 1166,-23 1303,-23 1303,-59"/>
<text text-anchor="middle" x="1234.5" y="-37.3" font-family="Times,serif" font-size="14.00">Vehicle Interface</text>
</g>
<!-- MPC Controller&#45;&gt;Vehicle Interface -->
<g id="edge27" class="edge">
<title>MPC Controller&#45;&gt;Vehicle Interface</title>
<path fill="none" stroke="black" d="M1129.54,-28.29C1138.18,-27.62 1146.82,-27.38 1155.47,-27.56"/>
<polygon fill="black" stroke="black" points="1155.49,-31.06 1165.62,-27.96 1155.76,-24.07 1155.49,-31.06"/>
</g>
<!-- MPC Controller&#45;&gt;Vehicle Interface -->
<!-- Lane Planner -->
<g id="node13" class="node">
<title>Lane Planner</title>
<polygon fill="#469986" stroke="black" stroke-width="2" points="1273,-131 1162,-131 1162,-95 1273,-95 1273,-131"/>
<text text-anchor="middle" x="1217.5" y="-109.3" font-family="Times,serif" font-size="14.00">Lane Planner</text>
</g>
<!-- Lane Planner&#45;&gt;Behavior Planner -->
<g id="edge22" class="edge">
<title>Lane Planner&#45;&gt;Behavior Planner</title>
<path fill="none" stroke="black" d="M1161.94,-113C1153.27,-113 1144.6,-113 1135.92,-113"/>
<polygon fill="black" stroke="black" points="1135.74,-109.5 1125.74,-113 1135.74,-116.5 1135.74,-109.5"/>
</g>
<!-- Parking Planner -->
<g id="node14" class="node">
<title>Parking Planner</title>
<polygon fill="#469986" stroke="black" stroke-width="2" points="1307,-203 1176,-203 1176,-167 1307,-167 1307,-203"/>
<text text-anchor="middle" x="1241.5" y="-181.3" font-family="Times,serif" font-size="14.00">Parking Planner</text>
</g>
<!-- Parking Planner&#45;&gt;Behavior Planner -->
<g id="edge13" class="edge">
<title>Parking Planner&#45;&gt;Behavior Planner</title>
<path fill="none" stroke="black" d="M1196,-166.88C1170.12,-157.14 1137.53,-144.87 1110.26,-134.61"/>
<polygon fill="black" stroke="black" points="1111.44,-131.31 1100.85,-131.07 1108.98,-137.87 1111.44,-131.31"/>
</g>
<!-- Euclidean Cluster Settings -->
<g id="node15" class="node">
<title>Euclidean Cluster Settings</title>
<polygon fill="#ff6961" stroke="black" stroke-width="2" points="209,-59 0,-59 0,-23 209,-23 209,-59"/>
<text text-anchor="middle" x="104.5" y="-37.3" font-family="Times,serif" font-size="14.00">Euclidean Cluster Settings</text>
</g>
<!-- Euclidean Cluster Settings&#45;&gt;Ray Ground Filter -->
<!-- Euclidean Cluster Settings&#45;&gt;Euclidean Cluster Detector -->
<g id="edge23" class="edge">
<title>Euclidean Cluster Settings&#45;&gt;Euclidean Cluster Detector</title>
<path fill="none" stroke="black" d="M161.5,-59.01C186.93,-66.14 217.42,-73.47 245.5,-77 309.88,-85.09 326.91,-83.26 391.5,-77 425.85,-73.67 463.31,-66.92 495.41,-60.16"/>
<polygon fill="black" stroke="black" points="496.15,-63.58 505.2,-58.07 494.68,-56.74 496.15,-63.58"/>
</g>
<!-- Euclidean Cluster Detector&#45;&gt;Object Collision Estimator -->
<g id="edge25" class="edge">
<title>Euclidean Cluster Detector&#45;&gt;Object Collision Estimator</title>
<path fill="none" stroke="black" d="M681.72,-28.41C704.38,-27.3 727.04,-27.21 749.7,-28.12"/>
<polygon fill="black" stroke="black" points="749.6,-31.62 759.75,-28.59 749.93,-24.62 749.6,-31.62"/>
</g>
<!-- Euclidean Cluster Detector&#45;&gt;Object Collision Estimator -->
<!-- Point Cloud Fusion&#45;&gt;Voxel Grid Downsampler -->
<g id="edge16" class="edge">
<title>Point Cloud Fusion&#45;&gt;Voxel Grid Downsampler</title>
<path fill="none" stroke="black" d="M414.6,-113C434.1,-113 453.6,-113 473.09,-113"/>
<polygon fill="black" stroke="black" points="473.29,-116.5 483.29,-113 473.29,-109.5 473.29,-116.5"/>
</g>
<!-- Point Cloud Fusion&#45;&gt;Ray Ground Filter -->
<g id="edge15" class="edge">
<title>Point Cloud Fusion&#45;&gt;Ray Ground Filter</title>
<path fill="none" stroke="black" d="M333.56,-94.7C331.33,-86.9 328.65,-77.51 326.17,-68.83"/>
<polygon fill="black" stroke="black" points="329.5,-67.76 323.39,-59.1 322.77,-69.68 329.5,-67.76"/>
</g>
<!-- NDT Localizer&#45;&gt;Lanelet2 Global Planner -->
<g id="edge19" class="edge">
<title>NDT Localizer&#45;&gt;Lanelet2 Global Planner</title>
<path fill="none" stroke="black" d="M806.5,-131.1C811.71,-139.21 818.05,-149.08 823.84,-158.08"/>
<polygon fill="black" stroke="black" points="821.02,-160.18 829.38,-166.7 826.91,-156.39 821.02,-160.18"/>
</g>
<!-- NDT Localizer&#45;&gt;Behavior Planner -->
<g id="edge18" class="edge">
<title>NDT Localizer&#45;&gt;Behavior Planner</title>
<path fill="none" stroke="black" d="M854.66,-113C894.8,-113 934.94,-113 975.08,-113"/>
<polygon fill="black" stroke="black" points="975.28,-116.5 985.28,-113 975.28,-109.5 975.28,-116.5"/>
</g>
<!-- Vehicle DBW System -->
<g id="node23" class="node">
<title>Vehicle DBW System</title>
<polygon fill="#ffaa66" stroke="black" stroke-width="2" points="1505.5,-59 1339.5,-59 1339.5,-23 1505.5,-23 1505.5,-59"/>
<text text-anchor="middle" x="1422.5" y="-37.3" font-family="Times,serif" font-size="14.00">Vehicle DBW System</text>
</g>
<!-- Vehicle Interface&#45;&gt;Vehicle DBW System -->
<g id="edge28" class="edge">
<title>Vehicle Interface&#45;&gt;Vehicle DBW System</title>
<path fill="none" stroke="black" d="M1303.16,-41C1311.76,-41 1320.36,-41 1328.96,-41"/>
<polygon fill="black" stroke="black" points="1329.06,-44.5 1339.06,-41 1329.06,-37.5 1329.06,-44.5"/>
</g>
<!-- Lanelet2 Map Loader&#45;&gt;Lane Planner -->
<g id="edge14" class="edge">
<title>Lanelet2 Map Loader&#45;&gt;Lane Planner</title>
<path fill="none" stroke="black" d="M1095.13,-166.88C1117.28,-157.31 1145.06,-145.3 1168.56,-135.15"/>
<polygon fill="black" stroke="black" points="1170.21,-138.25 1178,-131.07 1167.43,-131.82 1170.21,-138.25"/>
</g>
<!-- Lanelet2 Map Loader&#45;&gt;Parking Planner -->
<g id="edge12" class="edge">
<title>Lanelet2 Map Loader&#45;&gt;Parking Planner</title>
<path fill="none" stroke="black" d="M1140.14,-185C1148.68,-185 1157.22,-185 1165.76,-185"/>
<polygon fill="black" stroke="black" points="1165.78,-188.5 1175.78,-185 1165.78,-181.5 1165.78,-188.5"/>
</g>
<!-- Lanelet2 Map Loader&#45;&gt;Behavior Planner -->
<g id="edge11" class="edge">
<title>Lanelet2 Map Loader&#45;&gt;Behavior Planner</title>
<path fill="none" stroke="black" d="M1055.5,-166.7C1055.5,-158.98 1055.5,-149.71 1055.5,-141.11"/>
<polygon fill="black" stroke="black" points="1059,-141.1 1055.5,-131.1 1052,-141.1 1059,-141.1"/>
</g>
<!-- Lanelet2 Global Planner&#45;&gt;Lanelet2 Map Loader -->
<g id="edge9" class="edge">
<title>Lanelet2 Global Planner&#45;&gt;Lanelet2 Map Loader</title>
<path fill="none" stroke="black" d="M935.4,-185C943.74,-185 952.08,-185 960.42,-185"/>
<polygon fill="black" stroke="black" points="960.59,-188.5 970.59,-185 960.59,-181.5 960.59,-188.5"/>
</g>
<!-- Lanelet2 Global Planner&#45;&gt;Behavior Planner -->
<g id="edge10" class="edge">
<title>Lanelet2 Global Planner&#45;&gt;Behavior Planner</title>
<path fill="none" stroke="black" d="M892.82,-166.97C923.12,-157.1 961.45,-144.62 993.29,-134.25"/>
<polygon fill="black" stroke="black" points="994.52,-137.53 1002.95,-131.11 992.35,-130.88 994.52,-137.53"/>
</g>
<!-- Behavior Planner&#45;&gt;MPC Controller -->
<g id="edge20" class="edge">
<title>Behavior Planner&#45;&gt;MPC Controller</title>
<path fill="none" stroke="black" d="M1057.97,-94.7C1059.07,-86.98 1060.4,-77.71 1061.63,-69.11"/>
<polygon fill="black" stroke="black" points="1065.11,-69.5 1063.06,-59.1 1058.18,-68.51 1065.11,-69.5"/>
</g>
<!-- Behavior Planner&#45;&gt;Vehicle Interface -->
<g id="edge21" class="edge">
<title>Behavior Planner&#45;&gt;Vehicle Interface</title>
<path fill="none" stroke="black" d="M1099.29,-94.88C1124.08,-85.18 1155.28,-72.98 1181.46,-62.74"/>
<polygon fill="black" stroke="black" points="1182.82,-65.97 1190.85,-59.07 1180.27,-59.45 1182.82,-65.97"/>
</g>
</g>
</svg>
