<?xml version="1.0" encoding="UTF-8" standalone="no"?>
<!DOCTYPE svg PUBLIC "-//W3C//DTD SVG 1.1//EN"
 "http://www.w3.org/Graphics/SVG/1.1/DTD/svg11.dtd">
<!-- Generated by graphviz version 2.43.0 (0)
 -->
<!-- Title: G Pages: 1 -->
<svg width="3180pt" height="620pt"
 viewBox="0.00 0.00 3180.00 620.00" xmlns="http://www.w3.org/2000/svg" xmlns:xlink="http://www.w3.org/1999/xlink">
<g id="graph0" class="graph" transform="scale(2.35 2.35) rotate(0) translate(4 279)">
<title>G</title>
<polygon fill="white" stroke="transparent" points="-4,4 -4,-279 1350.5,-279 1350.5,4 -4,4"/>
<text text-anchor="middle" x="108" y="-7.8" font-family="Times,serif" font-size="14.00">reference_system_autoware</text>
<!-- Front Lidar Driver -->
<g id="node1" class="node">
<title>Front Lidar Driver</title>
<polygon fill="#fcd975" stroke="black" stroke-width="2" points="174,-275 25,-275 25,-239 174,-239 174,-275"/>
<text text-anchor="middle" x="99.5" y="-253.3" font-family="Times,serif" font-size="14.00">Front Lidar Driver</text>
</g>
<!-- Front Points Transformer -->
<g id="node3" class="node">
<title>Front Points Transformer</title>
<polygon fill="#469986" stroke="black" stroke-width="2" points="199,-203 0,-203 0,-167 199,-167 199,-203"/>
<text text-anchor="middle" x="99.5" y="-181.3" font-family="Times,serif" font-size="14.00">Front Points Transformer</text>
</g>
<!-- Front Lidar Driver&#45;&gt;Front Points Transformer -->
<g id="edge1" class="edge">
<title>Front Lidar Driver&#45;&gt;Front Points Transformer</title>
<path fill="none" stroke="black" d="M99.5,-238.7C99.5,-230.98 99.5,-221.71 99.5,-213.11"/>
<polygon fill="black" stroke="black" points="103,-213.1 99.5,-203.1 96,-213.1 103,-213.1"/>
</g>
<!-- Rear Lidar Driver -->
<g id="node2" class="node">
<title>Rear Lidar Driver</title>
<polygon fill="#fcd975" stroke="black" stroke-width="2" points="403,-275 260,-275 260,-239 403,-239 403,-275"/>
<text text-anchor="middle" x="331.5" y="-253.3" font-family="Times,serif" font-size="14.00">Rear Lidar Driver</text>
</g>
<!-- Rear Points Transformer -->
<g id="node4" class="node">
<title>Rear Points Transformer</title>
<polygon fill="#469986" stroke="black" stroke-width="2" points="428,-203 235,-203 235,-167 428,-167 428,-203"/>
<text text-anchor="middle" x="331.5" y="-181.3" font-family="Times,serif" font-size="14.00">Rear Points Transformer</text>
</g>
<!-- Rear Lidar Driver&#45;&gt;Rear Points Transformer -->
<g id="edge2" class="edge">
<title>Rear Lidar Driver&#45;&gt;Rear Points Transformer</title>
<path fill="none" stroke="black" d="M331.5,-238.7C331.5,-230.98 331.5,-221.71 331.5,-213.11"/>
<polygon fill="black" stroke="black" points="335,-213.1 331.5,-203.1 328,-213.1 335,-213.1"/>
</g>
<!-- Point Cloud Fusion -->
<g id="node5" class="node">
<title>Point Cloud Fusion</title>
<polygon fill="#b6d7bf" stroke="black" stroke-width="2" points="338.5,-131 186.5,-131 186.5,-95 338.5,-95 338.5,-131"/>
<text text-anchor="middle" x="262.5" y="-109.3" font-family="Times,serif" font-size="14.00">Point Cloud Fusion</text>
</g>
<!-- Front Points Transformer&#45;&gt;Point Cloud Fusion -->
<g id="edge6" class="edge">
<title>Front Points Transformer&#45;&gt;Point Cloud Fusion</title>
<path fill="none" stroke="black" d="M139.37,-166.88C161.66,-157.31 189.62,-145.3 213.26,-135.15"/>
<polygon fill="black" stroke="black" points="214.95,-138.23 222.76,-131.07 212.19,-131.8 214.95,-138.23"/>
</g>
<!-- Rear Points Transformer&#45;&gt;Point Cloud Fusion -->
<g id="edge7" class="edge">
<title>Rear Points Transformer&#45;&gt;Point Cloud Fusion</title>
<path fill="none" stroke="black" d="M314.44,-166.7C306,-158.14 295.68,-147.66 286.46,-138.3"/>
<polygon fill="black" stroke="black" points="288.87,-135.77 279.36,-131.1 283.89,-140.68 288.87,-135.77"/>
</g>
<!-- Ray Ground Filter -->
<g id="node6" class="node">
<title>Ray Ground Filter</title>
<polygon fill="#b6d7bf" stroke="black" stroke-width="2" points="317.5,-59 171.5,-59 171.5,-23 317.5,-23 317.5,-59"/>
<text text-anchor="middle" x="244.5" y="-37.3" font-family="Times,serif" font-size="14.00">Ray Ground Filter</text>
</g>
<!-- Point Cloud Fusion&#45;&gt;Ray Ground Filter -->
<g id="edge14" class="edge">
<title>Point Cloud Fusion&#45;&gt;Ray Ground Filter</title>
<path fill="none" stroke="black" d="M258.05,-94.7C256.05,-86.9 253.63,-77.51 251.4,-68.83"/>
<polygon fill="black" stroke="black" points="254.78,-67.92 248.9,-59.1 248,-69.66 254.78,-67.92"/>
</g>
<!-- Voxel Grid Downsampler -->
<g id="node20" class="node">
<title>Voxel Grid Downsampler</title>
<polygon fill="#9d813b" stroke="black" stroke-width="2" points="577.5,-131 383.5,-131 383.5,-95 577.5,-95 577.5,-131"/>
<text text-anchor="middle" x="480.5" y="-109.3" font-family="Times,serif" font-size="14.00">Voxel Grid Downsampler</text>
</g>
<!-- Point Cloud Fusion&#45;&gt;Voxel Grid Downsampler -->
<g id="edge15" class="edge">
<title>Point Cloud Fusion&#45;&gt;Voxel Grid Downsampler</title>
<path fill="none" stroke="black" d="M338.71,-113C350.21,-113 361.7,-113 373.2,-113"/>
<polygon fill="black" stroke="black" points="373.3,-116.5 383.3,-113 373.3,-109.5 373.3,-116.5"/>
</g>
<!-- Euclidean Cluster Detector -->
<g id="node7" class="node">
<title>Euclidean Cluster Detector</title>
<polygon fill="#b6d7bf" stroke="black" stroke-width="2" points="565,-59 354,-59 354,-23 565,-23 565,-59"/>
<text text-anchor="middle" x="459.5" y="-37.3" font-family="Times,serif" font-size="14.00">Euclidean Cluster Detector</text>
</g>
<!-- Ray Ground Filter&#45;&gt;Euclidean Cluster Detector -->
<g id="edge22" class="edge">
<title>Ray Ground Filter&#45;&gt;Euclidean Cluster Detector</title>
<path fill="none" stroke="black" d="M317.57,-41C326.27,-41 334.97,-41 343.67,-41"/>
<polygon fill="black" stroke="black" points="343.88,-44.5 353.88,-41 343.88,-37.5 343.88,-44.5"/>
</g>
<!-- Object Collision Estimator -->
<g id="node9" class="node">
<title>Object Collision Estimator</title>
<polygon fill="#2576e8" stroke="black" stroke-width="2" points="806,-59 601,-59 601,-23 806,-23 806,-59"/>
<text text-anchor="middle" x="703.5" y="-37.3" font-family="Times,serif" font-size="14.00">Object Collision Estimator</text>
</g>
<!-- Euclidean Cluster Detector&#45;&gt;Object Collision Estimator -->
<g id="edge23" class="edge">
<title>Euclidean Cluster Detector&#45;&gt;Object Collision Estimator</title>
<path fill="none" stroke="black" d="M565.3,-41C573.83,-41 582.37,-41 590.91,-41"/>
<polygon fill="black" stroke="black" points="590.93,-44.5 600.93,-41 590.93,-37.5 590.93,-44.5"/>
</g>
<!-- Lanelet2 Map -->
<g id="node8" class="node">
<title>Lanelet2 Map</title>
<path fill="#2576e8" stroke="black" stroke-width="2" d="M1143,-271.73C1143,-273.53 1117.23,-275 1085.5,-275 1053.77,-275 1028,-273.53 1028,-271.73 1028,-271.73 1028,-242.27 1028,-242.27 1028,-240.47 1053.77,-239 1085.5,-239 1117.23,-239 1143,-240.47 1143,-242.27 1143,-242.27 1143,-271.73 1143,-271.73"/>
<path fill="none" stroke="black" stroke-width="2" d="M1143,-271.73C1143,-269.92 1117.23,-268.45 1085.5,-268.45 1053.77,-268.45 1028,-269.92 1028,-271.73"/>
<text text-anchor="middle" x="1085.5" y="-253.3" font-family="Times,serif" font-size="14.00">Lanelet2 Map</text>
</g>
<!-- Lanelet2 Map Loader -->
<g id="node11" class="node">
<title>Lanelet2 Map Loader</title>
<polygon fill="#2576e8" stroke="black" stroke-width="2" points="1170,-203 1001,-203 1001,-167 1170,-167 1170,-203"/>
<text text-anchor="middle" x="1085.5" y="-181.3" font-family="Times,serif" font-size="14.00">Lanelet2 Map Loader</text>
</g>
<!-- Lanelet2 Map&#45;&gt;Lanelet2 Map Loader -->
<g id="edge5" class="edge">
<title>Lanelet2 Map&#45;&gt;Lanelet2 Map Loader</title>
<path fill="none" stroke="black" d="M1085.5,-238.7C1085.5,-230.98 1085.5,-221.71 1085.5,-213.11"/>
<polygon fill="black" stroke="black" points="1089,-213.1 1085.5,-203.1 1082,-213.1 1089,-213.1"/>
</g>
<!-- Behavior Planner -->
<g id="node10" class="node">
<title>Behavior Planner</title>
<polygon fill="#2576e8" stroke="black" stroke-width="2" points="942.5,-131 802.5,-131 802.5,-95 942.5,-95 942.5,-131"/>
<text text-anchor="middle" x="872.5" y="-109.3" font-family="Times,serif" font-size="14.00">Behavior Planner</text>
</g>
<!-- Object Collision Estimator&#45;&gt;Behavior Planner -->
<g id="edge24" class="edge">
<title>Object Collision Estimator&#45;&gt;Behavior Planner</title>
<path fill="none" stroke="black" d="M744.71,-59.07C767.89,-68.67 797.03,-80.74 821.63,-90.93"/>
<polygon fill="black" stroke="black" points="820.58,-94.28 831.16,-94.88 823.26,-87.82 820.58,-94.28"/>
</g>
<!-- MPC Controller -->
<g id="node15" class="node">
<title>MPC Controller</title>
<polygon fill="#ffaa66" stroke="black" stroke-width="2" points="970.5,-59 842.5,-59 842.5,-23 970.5,-23 970.5,-59"/>
<text text-anchor="middle" x="906.5" y="-37.3" font-family="Times,serif" font-size="14.00">MPC Controller</text>
</g>
<!-- Behavior Planner&#45;&gt;MPC Controller -->
<g id="edge19" class="edge">
<title>Behavior Planner&#45;&gt;MPC Controller</title>
<path fill="none" stroke="black" d="M880.9,-94.7C884.77,-86.73 889.45,-77.1 893.74,-68.26"/>
<polygon fill="black" stroke="black" points="896.97,-69.63 898.19,-59.1 890.67,-66.57 896.97,-69.63"/>
</g>
<!-- Vehicle Interface -->
<g id="node16" class="node">
<title>Vehicle Interface</title>
<polygon fill="#ffaa66" stroke="black" stroke-width="2" points="1144,-59 1007,-59 1007,-23 1144,-23 1144,-59"/>
<text text-anchor="middle" x="1075.5" y="-37.3" font-family="Times,serif" font-size="14.00">Vehicle Interface</text>
</g>
<!-- Behavior Planner&#45;&gt;Vehicle Interface -->
<g id="edge20" class="edge">
<title>Behavior Planner&#45;&gt;Vehicle Interface</title>
<path fill="none" stroke="black" d="M921.9,-94.97C950.39,-85.14 986.39,-72.73 1016.37,-62.39"/>
<polygon fill="black" stroke="black" points="1017.57,-65.68 1025.88,-59.11 1015.28,-59.06 1017.57,-65.68"/>
</g>
<!-- Lane Planner -->
<g id="node13" class="node">
<title>Lane Planner</title>
<polygon fill="#2576e8" stroke="black" stroke-width="2" points="1116,-131 1005,-131 1005,-95 1116,-95 1116,-131"/>
<text text-anchor="middle" x="1060.5" y="-109.3" font-family="Times,serif" font-size="14.00">Lane Planner</text>
</g>
<!-- Lanelet2 Map Loader&#45;&gt;Lane Planner -->
<g id="edge13" class="edge">
<title>Lanelet2 Map Loader&#45;&gt;Lane Planner</title>
<path fill="none" stroke="black" d="M1079.32,-166.7C1076.5,-158.81 1073.11,-149.3 1069.98,-140.55"/>
<polygon fill="black" stroke="black" points="1073.27,-139.34 1066.61,-131.1 1066.68,-141.7 1073.27,-139.34"/>
</g>
<!-- Parking Planner -->
<g id="node14" class="node">
<title>Parking Planner</title>
<polygon fill="#2576e8" stroke="black" stroke-width="2" points="1337,-203 1206,-203 1206,-167 1337,-167 1337,-203"/>
<text text-anchor="middle" x="1271.5" y="-181.3" font-family="Times,serif" font-size="14.00">Parking Planner</text>
</g>
<!-- Lanelet2 Map Loader&#45;&gt;Parking Planner -->
<g id="edge11" class="edge">
<title>Lanelet2 Map Loader&#45;&gt;Parking Planner</title>
<path fill="none" stroke="black" d="M1170.14,-185C1178.68,-185 1187.22,-185 1195.76,-185"/>
<polygon fill="black" stroke="black" points="1195.78,-188.5 1205.78,-185 1195.78,-181.5 1195.78,-188.5"/>
</g>
<!-- Lanelet2 Global Planner -->
<g id="node12" class="node">
<title>Lanelet2 Global Planner</title>
<polygon fill="#2576e8" stroke="black" stroke-width="2" points="965,-203 776,-203 776,-167 965,-167 965,-203"/>
<text text-anchor="middle" x="870.5" y="-181.3" font-family="Times,serif" font-size="14.00">Lanelet2 Global Planner</text>
</g>
<!-- Lanelet2 Global Planner&#45;&gt;Behavior Planner -->
<g id="edge10" class="edge">
<title>Lanelet2 Global Planner&#45;&gt;Behavior Planner</title>
<path fill="none" stroke="black" d="M870.99,-166.7C871.21,-158.98 871.48,-149.71 871.73,-141.11"/>
<polygon fill="black" stroke="black" points="875.22,-141.2 872.01,-131.1 868.23,-141 875.22,-141.2"/>
</g>
<!-- Lanelet2 Global Planner&#45;&gt;Lanelet2 Map Loader -->
<g id="edge9" class="edge">
<title>Lanelet2 Global Planner&#45;&gt;Lanelet2 Map Loader</title>
<path fill="none" stroke="black" d="M965.4,-185C973.74,-185 982.08,-185 990.42,-185"/>
<polygon fill="black" stroke="black" points="990.59,-188.5 1000.59,-185 990.59,-181.5 990.59,-188.5"/>
</g>
<!-- Lane Planner&#45;&gt;Behavior Planner -->
<g id="edge21" class="edge">
<title>Lane Planner&#45;&gt;Behavior Planner</title>
<path fill="none" stroke="black" d="M1004.79,-113C987.47,-113 970.15,-113 952.83,-113"/>
<polygon fill="black" stroke="black" points="952.63,-109.5 942.63,-113 952.63,-116.5 952.63,-109.5"/>
</g>
<!-- Parking Planner&#45;&gt;Behavior Planner -->
<g id="edge12" class="edge">
<title>Parking Planner&#45;&gt;Behavior Planner</title>
<path fill="none" stroke="black" d="M1205.85,-170.33C1199.99,-169.17 1194.14,-168.05 1188.5,-167 1108.43,-152.09 1016.58,-136.9 952.62,-126.62"/>
<polygon fill="black" stroke="black" points="953.03,-123.14 942.6,-125.02 951.92,-130.06 953.03,-123.14"/>
</g>
<!-- MPC Controller&#45;&gt;Vehicle Interface -->
<g id="edge25" class="edge">
<title>MPC Controller&#45;&gt;Vehicle Interface</title>
<path fill="none" stroke="black" d="M970.54,-41C979.18,-41 987.82,-41 996.47,-41"/>
<polygon fill="black" stroke="black" points="996.62,-44.5 1006.62,-41 996.62,-37.5 996.62,-44.5"/>
</g>
<!-- Vehicle DBW System -->
<g id="node17" class="node">
<title>Vehicle DBW System</title>
<polygon fill="#ffaa66" stroke="black" stroke-width="2" points="1346.5,-59 1180.5,-59 1180.5,-23 1346.5,-23 1346.5,-59"/>
<text text-anchor="middle" x="1263.5" y="-37.3" font-family="Times,serif" font-size="14.00">Vehicle DBW System</text>
</g>
<!-- Vehicle Interface&#45;&gt;Vehicle DBW System -->
<g id="edge26" class="edge">
<title>Vehicle Interface&#45;&gt;Vehicle DBW System</title>
<path fill="none" stroke="black" d="M1144.16,-41C1152.76,-41 1161.36,-41 1169.96,-41"/>
<polygon fill="black" stroke="black" points="1170.06,-44.5 1180.06,-41 1170.06,-37.5 1170.06,-44.5"/>
</g>
<!-- Point Cloud Map -->
<g id="node18" class="node">
<title>Point Cloud Map</title>
<path fill="#9d813b" stroke="black" stroke-width="2" d="M713,-271.73C713,-273.53 682.75,-275 645.5,-275 608.25,-275 578,-273.53 578,-271.73 578,-271.73 578,-242.27 578,-242.27 578,-240.47 608.25,-239 645.5,-239 682.75,-239 713,-240.47 713,-242.27 713,-242.27 713,-271.73 713,-271.73"/>
<path fill="none" stroke="black" stroke-width="2" d="M713,-271.73C713,-269.92 682.75,-268.45 645.5,-268.45 608.25,-268.45 578,-269.92 578,-271.73"/>
<text text-anchor="middle" x="645.5" y="-253.3" font-family="Times,serif" font-size="14.00">Point Cloud Map</text>
</g>
<!-- Point Cloud Map Loader -->
<g id="node19" class="node">
<title>Point Cloud Map Loader</title>
<polygon fill="#9d813b" stroke="black" stroke-width="2" points="740,-203 551,-203 551,-167 740,-167 740,-203"/>
<text text-anchor="middle" x="645.5" y="-181.3" font-family="Times,serif" font-size="14.00">Point Cloud Map Loader</text>
</g>
<!-- Point Cloud Map&#45;&gt;Point Cloud Map Loader -->
<g id="edge3" class="edge">
<title>Point Cloud Map&#45;&gt;Point Cloud Map Loader</title>
<path fill="none" stroke="black" d="M645.5,-238.7C645.5,-230.98 645.5,-221.71 645.5,-213.11"/>
<polygon fill="black" stroke="black" points="649,-213.1 645.5,-203.1 642,-213.1 649,-213.1"/>
</g>
<!-- NDT Localizer -->
<g id="node21" class="node">
<title>NDT Localizer</title>
<polygon fill="#9d813b" stroke="black" stroke-width="2" points="735.5,-131 617.5,-131 617.5,-95 735.5,-95 735.5,-131"/>
<text text-anchor="middle" x="676.5" y="-109.3" font-family="Times,serif" font-size="14.00">NDT Localizer</text>
</g>
<!-- Point Cloud Map Loader&#45;&gt;NDT Localizer -->
<g id="edge8" class="edge">
<title>Point Cloud Map Loader&#45;&gt;NDT Localizer</title>
<path fill="none" stroke="black" d="M653.16,-166.7C656.69,-158.73 660.96,-149.1 664.87,-140.26"/>
<polygon fill="black" stroke="black" points="668.08,-141.67 668.93,-131.1 661.68,-138.83 668.08,-141.67"/>
</g>
<!-- Voxel Grid Downsampler&#45;&gt;NDT Localizer -->
<g id="edge16" class="edge">
<title>Voxel Grid Downsampler&#45;&gt;NDT Localizer</title>
<path fill="none" stroke="black" d="M577.73,-113C587.57,-113 597.4,-113 607.23,-113"/>
<polygon fill="black" stroke="black" points="607.47,-116.5 617.47,-113 607.47,-109.5 607.47,-116.5"/>
</g>
<!-- NDT Localizer&#45;&gt;Behavior Planner -->
<g id="edge17" class="edge">
<title>NDT Localizer&#45;&gt;Behavior Planner</title>
<path fill="none" stroke="black" d="M735.84,-113C754.62,-113 773.39,-113 792.17,-113"/>
<polygon fill="black" stroke="black" points="792.3,-116.5 802.3,-113 792.3,-109.5 792.3,-116.5"/>
</g>
<!-- NDT Localizer&#45;&gt;Lanelet2 Global Planner -->
<g id="edge18" class="edge">
<title>NDT Localizer&#45;&gt;Lanelet2 Global Planner</title>
<path fill="none" stroke="black" d="M723.8,-131.07C750.89,-140.84 785.05,-153.17 813.6,-163.47"/>
<polygon fill="black" stroke="black" points="812.45,-166.77 823.04,-166.88 814.82,-160.19 812.45,-166.77"/>
</g>
<!-- rviz2 or web interface -->
<g id="node22" class="node">
<title>rviz2 or web interface</title>
<polygon fill="#b6a5bf" stroke="black" stroke-width="2" points="957.5,-275 787.5,-275 783.5,-271 783.5,-239 953.5,-239 957.5,-243 957.5,-275"/>
<polyline fill="none" stroke="black" stroke-width="2" points="953.5,-271 783.5,-271 "/>
<polyline fill="none" stroke="black" stroke-width="2" points="953.5,-271 953.5,-239 "/>
<polyline fill="none" stroke="black" stroke-width="2" points="953.5,-271 957.5,-275 "/>
<text text-anchor="middle" x="870.5" y="-253.3" font-family="Times,serif" font-size="14.00">rviz2 or web interface</text>
</g>
<!-- rviz2 or web interface&#45;&gt;Lanelet2 Global Planner -->
<g id="edge4" class="edge">
<title>rviz2 or web interface&#45;&gt;Lanelet2 Global Planner</title>
<path fill="none" stroke="black" d="M870.5,-238.7C870.5,-230.98 870.5,-221.71 870.5,-213.11"/>
<polygon fill="black" stroke="black" points="874,-213.1 870.5,-203.1 867,-213.1 874,-213.1"/>
</g>
</g>
</svg>
